<?xml version="1.0" encoding="UTF-8" standalone="no"?>
<!-- Created with Inkscape (http://www.inkscape.org/) -->

<svg
   xmlns:dc="http://purl.org/dc/elements/1.1/"
   xmlns:cc="http://creativecommons.org/ns#"
   xmlns:rdf="http://www.w3.org/1999/02/22-rdf-syntax-ns#"
   xmlns:svg="http://www.w3.org/2000/svg"
   xmlns="http://www.w3.org/2000/svg"
   xmlns:sodipodi="http://sodipodi.sourceforge.net/DTD/sodipodi-0.dtd"
   xmlns:inkscape="http://www.inkscape.org/namespaces/inkscape"
   width="300mm"
   height="150mm"
   viewBox="0 0 300 150"
   version="1.1"
   id="svg8"
   inkscape:version="0.92.2 (5c3e80d, 2017-08-06)"
   sodipodi:docname="check.svg">
  <defs
     id="defs2" />
  <sodipodi:namedview
     id="base"
     pagecolor="#ffffff"
     bordercolor="#666666"
     borderopacity="1.0"
     inkscape:pageopacity="0.0"
     inkscape:pageshadow="2"
     inkscape:zoom="0.35"
     inkscape:cx="762.81255"
     inkscape:cy="674.28571"
     inkscape:document-units="mm"
     inkscape:current-layer="g924"
     showgrid="false"
     inkscape:window-width="1920"
     inkscape:window-height="1017"
     inkscape:window-x="-8"
     inkscape:window-y="-8"
     inkscape:window-maximized="1" />
  <metadata
     id="metadata5">
    <rdf:RDF>
      <cc:Work
         rdf:about="">
        <dc:format>image/svg+xml</dc:format>
        <dc:type
           rdf:resource="http://purl.org/dc/dcmitype/StillImage" />
        <dc:title></dc:title>
      </cc:Work>
    </rdf:RDF>
  </metadata>
  <g
     inkscape:label="Layer 1"
     inkscape:groupmode="layer"
     id="layer1"
     transform="translate(0,-147)">
    <g
       id="g873"
       transform="matrix(0.36894792,0,0,0.36894792,2.3432205,148.15431)">
      <g
         id="g817">
        <path
           id="path815"
           d="M 377.87,24.126 C 361.786,8.042 342.417,0 319.769,0 H 82.227 C 59.579,0 40.211,8.042 24.125,24.126 8.044,40.212 0.002,59.576 0.002,82.228 v 237.543 c 0,22.647 8.042,42.014 24.123,58.101 16.086,16.085 35.454,24.127 58.102,24.127 h 237.542 c 22.648,0 42.011,-8.042 58.102,-24.127 16.085,-16.087 24.126,-35.453 24.126,-58.101 V 82.228 C 401.993,59.58 393.951,40.212 377.87,24.126 Z m -12.422,295.645 c 0,12.559 -4.47,23.314 -13.415,32.264 -8.945,8.945 -19.698,13.411 -32.265,13.411 H 82.227 C 69.664,365.446 58.91,360.98 49.963,352.035 41.018,343.086 36.545,332.33 36.545,319.771 V 82.228 c 0,-12.562 4.473,-23.316 13.418,-32.264 8.947,-8.946 19.701,-13.418 32.264,-13.418 h 237.542 c 12.566,0 23.319,4.473 32.265,13.418 8.945,8.947 13.415,19.701 13.415,32.264 v 237.543 z"
           inkscape:connector-curvature="0"
           style="fill:#e3e4e9" />
      </g>
      <g
         id="g819" />
      <g
         id="g821" />
      <g
         id="g823" />
      <g
         id="g825" />
      <g
         id="g827" />
      <g
         id="g829" />
      <g
         id="g831" />
      <g
         id="g833" />
      <g
         id="g835" />
      <g
         id="g837" />
      <g
         id="g839" />
      <g
         id="g841" />
      <g
         id="g843" />
      <g
         id="g845" />
      <g
         id="g847" />
    </g>
  </g>
  <g
     transform="translate(0,-147)"
     id="g924"
     inkscape:groupmode="layer"
     inkscape:label="Layer 1 copy">
    <g
       transform="matrix(0.36894792,0,0,0.36894792,150.20751,148.15431)"
       id="g920">
      <g
         id="g888">
        <path
           style="fill:#e3e4e9"
           inkscape:connector-curvature="0"
           d="M 377.87,24.126 C 361.786,8.042 342.417,0 319.769,0 H 82.227 C 59.579,0 40.211,8.042 24.125,24.126 8.044,40.212 0.002,59.576 0.002,82.228 v 237.543 c 0,22.647 8.042,42.014 24.123,58.101 16.086,16.085 35.454,24.127 58.102,24.127 h 237.542 c 22.648,0 42.011,-8.042 58.102,-24.127 16.085,-16.087 24.126,-35.453 24.126,-58.101 V 82.228 C 401.993,59.58 393.951,40.212 377.87,24.126 Z m -12.422,295.645 c 0,12.559 -4.47,23.314 -13.415,32.264 -8.945,8.945 -19.698,13.411 -32.265,13.411 H 82.227 C 69.664,365.446 58.91,360.98 49.963,352.035 41.018,343.086 36.545,332.33 36.545,319.771 V 82.228 c 0,-12.562 4.473,-23.316 13.418,-32.264 8.947,-8.946 19.701,-13.418 32.264,-13.418 h 237.542 c 12.566,0 23.319,4.473 32.265,13.418 8.945,8.947 13.415,19.701 13.415,32.264 v 237.543 z"
           id="path886" />
      </g>
      <g
         id="g890" />
      <g
         id="g892" />
      <g
         id="g894" />
      <g
         id="g896" />
      <g
         id="g898" />
      <g
         id="g900" />
      <g
         id="g902" />
      <g
         id="g904" />
      <g
         id="g906" />
      <g
         id="g908" />
      <g
         id="g910" />
      <g
         id="g912" />
      <g
         id="g914" />
      <g
         id="g916" />
      <g
         id="g918" />
    </g>
    <path
       style="fill:#e3e4e9;stroke-width:4.0007329"
       inkscape:connector-curvature="0"
       d="m 176.56394,227.47076 c -0.80014,-0.80014 -1.20022,-2.00036 -1.20022,-2.80051 0,-0.80014 0.40008,-2.00037 1.20022,-2.80051 l 5.60103,-5.60103 c 1.60029,-1.60029 4.00073,-1.60029 5.60103,0 l 0.40007,0.40008 22.00403,23.60432 c 0.80015,0.80014 2.00036,0.80014 2.80051,0 l 53.60982,-55.61018 h 0.40007 v 0 c 1.60029,-1.6003 4.00073,-1.6003 5.60102,0 l 5.60103,5.60102 c 1.60029,1.6003 1.60029,4.00073 0,5.60102 v 0 l -64.01172,66.41217 c -0.80015,0.80014 -1.60029,1.20022 -2.80051,1.20022 -1.20022,0 -2.00037,-0.40008 -2.80052,-1.20022 l -31.20571,-33.60615 z"
       id="path922" />
  </g>
</svg>
