<?xml version="1.0" encoding="UTF-8"?>
<!DOCTYPE svg PUBLIC "-//W3C//DTD SVG 1.1//EN" "http://www.w3.org/Graphics/SVG/1.1/DTD/svg11.dtd">
<!-- Creator: CorelDRAW X8 -->
<svg xmlns="http://www.w3.org/2000/svg" xml:space="preserve" width="226mm" height="43.9098mm" version="1.1" style="shape-rendering:geometricPrecision; text-rendering:geometricPrecision; image-rendering:optimizeQuality; fill-rule:evenodd; clip-rule:evenodd"
viewBox="0 0 22600 4391"
 xmlns:xlink="http://www.w3.org/1999/xlink"
 enable-background="new 0 0 900 200">
 <defs>
  <style type="text/css">
   <![CDATA[
    .fil0 {fill:white}
   ]]>
  </style>
 </defs>
 <g id="Layer_x0020_1">
  <metadata id="CorelCorpID_0Corel-Layer"/>
  <g id="_2281982157776">
   <g>
    <polygon class="fil0" points="5814,1903 5814,1150 5516,1903 5443,1903 5143,1150 5143,1903 4972,1903 4972,928 5213,928 5479,1597 5744,928 5985,928 5985,1903 5814,1903 "/>
    <path class="fil0" d="M6369 1416c0,-291 206,-504 499,-504 290,0 498,213 498,504 0,291 -208,504 -498,504 -293,0 -499,-213 -499,-504zm821 0c0,-202 -127,-352 -322,-352 -198,0 -323,150 -323,352 0,200 125,352 323,352 195,0 322,-152 322,-352z"/>
    <path class="fil0" d="M8305 1903l-214 -364 -171 0 0 364 -171 0 0 -975 428 0c193,0 320,124 320,305 0,173 -114,268 -233,287l240 383 -199 0 0 0zm16 -671c0,-93 -70,-153 -166,-153l-235 0 0 309 235 0c96,0 166,-61 166,-156z"/>
    <path class="fil0" d="M8845 1416c0,-307 228,-504 511,-504 190,0 314,91 392,202l-139 80c-53,-73 -145,-130 -253,-130 -193,0 -336,146 -336,352 0,203 143,352 336,352 99,0 187,-45 231,-87l0 -151 -292 0 0 -150 461 0 0 363c-95,107 -232,179 -400,179 -283,0 -511,-200 -511,-506z"/>
    <path class="fil0" d="M10829 1903l-72 -189 -447 0 -71 189 -195 0 383 -975 213 0 383 975 -194 0zm-295 -804l-176 465 351 0 -175 -465z"/>
    <polygon class="fil0" points="12027,1903 11519,1206 11519,1903 11348,1903 11348,928 11523,928 12021,1603 12021,928 12192,928 12192,1903 12027,1903 "/>
    <path class="fil0" d="M13827 1903c-23,-22 -54,-51 -86,-85 -73,61 -162,102 -273,102 -173,0 -313,-93 -313,-277 0,-151 99,-228 212,-285 -41,-73 -69,-148 -69,-215 0,-130 113,-229 265,-229 131,0 239,71 239,198 0,148 -121,212 -242,271 33,46 69,89 96,121 32,39 65,77 97,112 46,-70 79,-147 96,-204l124 57c-33,79 -77,165 -134,242 58,62 120,124 190,192l-202 0 0 0zm-171 -174c-49,-53 -95,-104 -120,-136 -36,-42 -74,-91 -108,-139 -64,43 -111,94 -111,175 0,107 81,169 171,169 63,-1 119,-28 168,-69zm-156 -436c92,-43 166,-90 166,-172 0,-60 -42,-95 -97,-95 -65,0 -117,50 -117,121 0,44 19,95 48,146z"/>
    <path class="fil0" d="M14971 1903l0 -975 430 0c204,0 317,139 317,305 0,166 -114,304 -317,304l-259 0 0 366 -171 0 0 0zm572 -670c0,-93 -69,-154 -165,-154l-236 0 0 308 236 0c96,0 165,-61 165,-154z"/>
    <path class="fil0" d="M16637 1903l-215 -364 -171 0 0 364 -171 0 0 -975 429 0c192,0 320,124 320,305 0,173 -114,268 -233,287l240 383 -199 0 0 0zm16 -671c0,-93 -70,-153 -166,-153l-236 0 0 309 236 0c96,0 166,-61 166,-156z"/>
    <polygon class="fil0" points="17217,1903 17217,928 17885,928 17885,1079 17388,1079 17388,1330 17875,1330 17875,1480 17388,1480 17388,1752 17885,1752 17885,1903 17217,1903 "/>
    <path class="fil0" d="M18217 1765l96 -133c66,72 173,136 308,136 141,0 195,-68 195,-134 0,-205 -567,-78 -567,-436 0,-162 140,-286 355,-286 150,0 275,50 364,137l-97 127c-77,-77 -181,-112 -283,-112 -100,0 -164,50 -164,121 0,183 567,70 567,433 0,162 -115,302 -377,302 -180,0 -310,-64 -397,-155z"/>
    <polygon class="fil0" points="19584,1903 19584,1079 19289,1079 19289,928 20050,928 20050,1079 19755,1079 19755,1903 "/>
    <path class="fil0" d="M20335 1416c0,-291 206,-504 499,-504 290,0 498,213 498,504 0,291 -208,504 -498,504 -293,0 -499,-213 -499,-504zm822 0c0,-202 -128,-352 -323,-352 -198,0 -323,150 -323,352 0,200 125,352 323,352 195,0 323,-152 323,-352z"/>
    <polygon class="fil0" points="22393,1903 21884,1206 21884,1903 21713,1903 21713,928 21889,928 22387,1603 22387,928 22558,928 22558,1903 22393,1903 "/>
   </g>
   <g>
    <polygon class="fil0" points="5814,3462 5814,2709 5516,3462 5443,3462 5143,2709 5143,3462 4972,3462 4972,2487 5213,2487 5479,3156 5744,2487 5985,2487 5985,3462 "/>
    <path class="fil0" d="M6369 2975c0,-291 206,-504 499,-504 290,0 498,214 498,504 0,291 -208,504 -498,504 -293,0 -499,-213 -499,-504zm821 0c0,-201 -127,-352 -322,-352 -198,0 -323,151 -323,352 0,200 125,352 323,352 195,0 322,-152 322,-352z"/>
    <path class="fil0" d="M7749 3462l0 -975 362 0c305,0 510,202 510,487 0,288 -205,488 -509,488l-363 0 0 0zm697 -488c0,-187 -117,-336 -333,-336l-193 0 0 673 191 0c212,0 335,-152 335,-337z"/>
    <polygon class="fil0" points="9005,3462 9005,2487 9673,2487 9673,2638 9176,2638 9176,2889 9663,2889 9663,3039 9176,3039 9176,3311 9673,3311 9673,3462 "/>
    <polygon class="fil0" points="10054,3462 10054,2487 10225,2487 10225,3311 10655,3311 10655,3462 "/>
    <path class="fil0" d="M10962 3324l96 -133c66,72 173,136 309,136 140,0 194,-68 194,-134 0,-205 -567,-77 -567,-435 0,-163 140,-287 355,-287 151,0 275,50 364,138l-97 127c-77,-78 -181,-113 -283,-113 -99,0 -164,50 -164,121 0,183 567,71 567,433 0,162 -115,302 -377,302 -179,0 -309,-64 -397,-155z"/>
    <path class="fil0" d="M12708 3462l0 -975 479 0c180,0 278,111 278,249 0,121 -79,204 -170,223 106,16 189,120 189,238 0,152 -100,265 -284,265l-492 0zm581 -699c0,-71 -49,-125 -135,-125l-275 0 0 251 275 0c86,0 135,-51 135,-126zm19 412c0,-73 -51,-136 -147,-136l-282 0 0 272 282 0c92,0 147,-51 147,-136z"/>
    <path class="fil0" d="M14559 3462l-71 -189 -447 0 -72 189 -194 0 382 -975 214 0 383 975 -195 0zm-295 -804l-175 465 350 0 -175 -465z"/>
    <polygon class="fil0" points="15757,3462 15249,2765 15249,3462 15078,3462 15078,2487 15253,2487 15752,3162 15752,2487 15923,2487 15923,3462 "/>
    <path class="fil0" d="M16307 2975c0,-307 228,-504 511,-504 190,0 314,91 392,202l-139 80c-53,-73 -145,-130 -253,-130 -193,0 -336,146 -336,352 0,203 143,352 336,352 100,0 187,-45 231,-87l0 -151 -292 0 0 -150 462 0 0 364c-95,106 -233,178 -401,178 -283,0 -511,-200 -511,-506z"/>
    <polygon class="fil0" points="18199,3462 17873,3050 17787,3151 17787,3462 17616,3462 17616,2487 17787,2487 17787,2950 18168,2487 18380,2487 17984,2946 18411,3462 "/>
    <path class="fil0" d="M18627 2975c0,-291 206,-504 499,-504 290,0 498,214 498,504 0,291 -208,504 -498,504 -293,0 -499,-213 -499,-504zm821 0c0,-201 -127,-352 -323,-352 -197,0 -322,151 -322,352 0,200 125,352 322,352 196,0 323,-152 323,-352z"/>
    <polygon class="fil0" points="20590,3462 20264,3050 20178,3151 20178,3462 20007,3462 20007,2487 20178,2487 20178,2950 20559,2487 20771,2487 20375,2946 20801,3462 "/>
   </g>
  </g>
  <g>
   <path class="fil0" d="M2196 11c-1207,0 -2185,979 -2185,2185 0,1207 978,2186 2185,2186 1207,0 2185,-979 2185,-2186 0,-1206 -978,-2185 -2185,-2185l0 0zm12 4113c-1064,0 -1928,-863 -1928,-1928 0,-1064 863,-1928 1928,-1928 1065,0 1928,864 1928,1928 0,1065 -863,1928 -1928,1928z"/>
  </g>
  <polygon class="fil0" points="1981,3126 1673,3126 1101,1691 1101,3126 775,3126 775,1267 1235,1267 "/>
  <polygon class="fil0" points="2275,3126 2275,1691 1882,2683 1731,2306 2142,1267 2601,1267 2601,3126 "/>
  <path class="fil0" d="M3178 1267l-504 0 0 287 459 0c184,0 315,117 315,295 0,176 -131,293 -315,293l-459 0 0 287 11 0 493 0c387,0 605,-265 605,-580 0,-317 -215,-582 -605,-582z"/>
 </g>
</svg>
