<?xml version="1.0" encoding="UTF-8"?>
<!DOCTYPE svg PUBLIC "-//W3C//DTD SVG 1.1//EN" "http://www.w3.org/Graphics/SVG/1.1/DTD/svg11.dtd">
<!-- Creator: CorelDRAW X8 -->
<svg xmlns="http://www.w3.org/2000/svg" xml:space="preserve" width="272mm" height="137mm" version="1.1" style="shape-rendering:geometricPrecision; text-rendering:geometricPrecision; image-rendering:optimizeQuality; fill-rule:evenodd; clip-rule:evenodd"
viewBox="0 0 27200 13700"
 xmlns:xlink="http://www.w3.org/1999/xlink">
 <defs>
  <style type="text/css">
   <![CDATA[
    .fil1 {fill:#2BAB51}
    .fil0 {fill:#3A3A3A}
   ]]>
  </style>
 </defs>
 <g id="Layer_x0020_1">
  <metadata id="CorelCorpID_0Corel-Layer"/>
  <g id="_2623490461488">
   <g>
    <path class="fil0" d="M6825 58c3741,0 6773,3033 6773,6773 0,3455 -2585,6305 -5926,6721l0 -5027 2328 0 212 -1694 -2540 0 0 -846c0,-468 379,-847 846,-847l1694 0 0 -1693 -1694 0c-1402,0 -2540,1137 -2540,2540l0 846 -1270 0 0 1694 1270 0 0 3347 0 1519 0 161c-3341,-416 -5926,-3266 -5926,-6721 0,-3740 3032,-6773 6773,-6773z"/>
   </g>
   <g>
   </g>
   <g>
   </g>
   <g>
   </g>
   <g>
   </g>
   <g>
   </g>
   <g>
   </g>
   <g>
   </g>
   <g>
   </g>
   <g>
   </g>
   <g>
   </g>
   <g>
   </g>
   <g>
   </g>
   <g>
   </g>
   <g>
   </g>
   <g>
   </g>
  </g>
  <g id="_2623490484112">
   <g>
    <path class="fil1" d="M20356 66c3741,0 6774,3033 6774,6774 0,3454 -2586,6304 -5927,6721l0 -5028 2328 0 212 -1693 -2540 0 0 -847c0,-467 379,-847 847,-847l1693 0 0 -1693 -1693 0c-1403,0 -2540,1137 -2540,2540l0 847 -1270 0 0 1693 1270 0 0 3347 0 1520 0 161c-3342,-417 -5927,-3267 -5927,-6721 0,-3741 3033,-6774 6773,-6774z"/>
   </g>
   <g>
   </g>
   <g>
   </g>
   <g>
   </g>
   <g>
   </g>
   <g>
   </g>
   <g>
   </g>
   <g>
   </g>
   <g>
   </g>
   <g>
   </g>
   <g>
   </g>
   <g>
   </g>
   <g>
   </g>
   <g>
   </g>
   <g>
   </g>
   <g>
   </g>
  </g>
 </g>
</svg>
