<?xml version="1.0" encoding="UTF-8"?>
<!DOCTYPE svg PUBLIC "-//W3C//DTD SVG 1.1//EN" "http://www.w3.org/Graphics/SVG/1.1/DTD/svg11.dtd">
<!-- Creator: CorelDRAW X8 -->
<svg xmlns="http://www.w3.org/2000/svg" xml:space="preserve" width="272mm" height="137mm" version="1.1" style="shape-rendering:geometricPrecision; text-rendering:geometricPrecision; image-rendering:optimizeQuality; fill-rule:evenodd; clip-rule:evenodd"
viewBox="0 0 27200 13700"
 xmlns:xlink="http://www.w3.org/1999/xlink">
 <defs>
  <style type="text/css">
   <![CDATA[
    .fil1 {fill:#2BAB51}
    .fil0 {fill:#3A3A3A}
   ]]>
  </style>
 </defs>
 <g id="Layer_x0020_1">
  <metadata id="CorelCorpID_0Corel-Layer"/>
  <g id="_2623543700640">
   <g>
    <g>
     <path class="fil0" d="M6591 5556c0,-693 -414,-1772 -1214,-1772 -250,0 -519,125 -674,318 -164,202 -212,462 -212,713 0,644 376,1713 1204,1713 241,0 501,-115 655,-269 221,-223 241,-530 241,-703z"/>
     <path class="fil0" d="M13584 6853c0,-3741 -3033,-6773 -6774,-6773 -3740,0 -6773,3032 -6773,6773 0,3741 3033,6773 6773,6773 3741,0 6774,-3032 6774,-6773zm-4689 -1302l521 0 0 1041 1041 0 0 521 -1041 0 0 1042 -521 0 0 -1042 -1042 0 0 -521 1042 0 0 -1041zm-5732 3875c0,-347 173,-837 742,-1175 596,-365 1405,-413 1838,-442 -135,-174 -289,-357 -289,-655 0,-164 48,-260 96,-376 -105,10 -211,20 -308,20 -1020,0 -1598,-762 -1598,-1512 0,-443 202,-934 616,-1290 550,-453 1204,-530 1724,-530l1983 0 -616 346 -597 0 0 0c221,183 684,569 684,1300 0,713 -405,1049 -809,1367 -125,125 -269,260 -269,472 0,212 144,327 250,414l346 269c424,356 809,684 809,1349 0,904 -876,1819 -2532,1819 -1396,1 -2070,-663 -2070,-1376z"/>
     <path class="fil0" d="M6071 8087c-77,-9 -125,-9 -221,-9 -87,0 -607,19 -1011,155 -212,77 -829,308 -829,991 0,684 665,1174 1695,1174 924,0 1415,-442 1415,-1039 0,-491 -317,-751 -1049,-1272z"/>
    </g>
   </g>
   <g>
   </g>
   <g>
   </g>
   <g>
   </g>
   <g>
   </g>
   <g>
   </g>
   <g>
   </g>
   <g>
   </g>
   <g>
   </g>
   <g>
   </g>
   <g>
   </g>
   <g>
   </g>
   <g>
   </g>
   <g>
   </g>
   <g>
   </g>
   <g>
   </g>
  </g>
  <g id="_2623543694912">
   <g>
    <g>
     <path class="fil1" d="M20137 5556c0,-693 -414,-1772 -1213,-1772 -250,0 -520,125 -674,318 -164,202 -212,462 -212,713 0,644 376,1713 1204,1713 241,0 500,-115 655,-269 221,-223 240,-530 240,-703z"/>
     <path class="fil1" d="M27130 6853c0,-3741 -3032,-6773 -6773,-6773 -3741,0 -6773,3032 -6773,6773 0,3741 3032,6773 6773,6773 3741,0 6773,-3032 6773,-6773zm-4689 -1302l521 0 0 1041 1042 0 0 521 -1042 0 0 1042 -521 0 0 -1042 -1042 0 0 -521 1042 0 0 -1041zm-5731 3875c0,-347 173,-837 741,-1175 597,-365 1406,-413 1839,-442 -135,-174 -289,-357 -289,-655 0,-164 48,-260 96,-376 -106,10 -212,20 -308,20 -1021,0 -1598,-762 -1598,-1512 0,-443 202,-934 616,-1290 549,-453 1204,-530 1724,-530l1983 0 -616 346 -597 0 0 0c221,183 683,569 683,1300 0,713 -404,1049 -808,1367 -125,125 -270,260 -270,472 0,212 145,327 250,414l347 269c424,356 808,684 808,1349 0,904 -876,1819 -2532,1819 -1395,1 -2069,-663 -2069,-1376z"/>
     <path class="fil1" d="M19617 8087c-76,-9 -125,-9 -221,-9 -86,0 -606,19 -1011,155 -211,77 -828,308 -828,991 0,684 665,1174 1695,1174 924,0 1415,-442 1415,-1039 0,-491 -317,-751 -1050,-1272z"/>
    </g>
   </g>
   <g>
   </g>
   <g>
   </g>
   <g>
   </g>
   <g>
   </g>
   <g>
   </g>
   <g>
   </g>
   <g>
   </g>
   <g>
   </g>
   <g>
   </g>
   <g>
   </g>
   <g>
   </g>
   <g>
   </g>
   <g>
   </g>
   <g>
   </g>
   <g>
   </g>
  </g>
 </g>
</svg>
