<?xml version="1.0" encoding="UTF-8"?>
<!DOCTYPE svg PUBLIC "-//W3C//DTD SVG 1.1//EN" "http://www.w3.org/Graphics/SVG/1.1/DTD/svg11.dtd">
<!-- Creator: CorelDRAW X8 -->
<svg xmlns="http://www.w3.org/2000/svg" xml:space="preserve" width="272mm" height="137mm" version="1.1" style="shape-rendering:geometricPrecision; text-rendering:geometricPrecision; image-rendering:optimizeQuality; fill-rule:evenodd; clip-rule:evenodd"
viewBox="0 0 27200 13700"
 xmlns:xlink="http://www.w3.org/1999/xlink">
 <defs>
  <style type="text/css">
   <![CDATA[
    .fil1 {fill:#2BAB51}
    .fil0 {fill:#3A3A3A}
   ]]>
  </style>
 </defs>
 <g id="Layer_x0020_1">
  <metadata id="CorelCorpID_0Corel-Layer"/>
  <g id="_2623544851600">
   <g>
    <g>
     <g>
      <path class="fil0" d="M6815 78c-3740,0 -6773,3033 -6773,6774 0,3740 3033,6773 6773,6773 3741,0 6774,-3033 6774,-6773 0,-3742 -3033,-6774 -6774,-6774zm-1693 10055l-1693 0 0 -5927 1693 0 0 5927zm-794 -6290c-439,0 -793,-356 -793,-794 0,-439 355,-795 793,-795 439,1 794,357 794,795 0,438 -355,794 -794,794zm6721 6290l-1694 0 0 -3665c0,-429 -122,-730 -650,-730 -874,0 -1043,730 -1043,730l0 3665 -1693 0 0 -5927 1693 0 0 566c242,-185 847,-565 1693,-565 549,0 1694,328 1694,2313l0 3613z"/>
     </g>
    </g>
    <g>
    </g>
    <g>
    </g>
    <g>
    </g>
    <g>
    </g>
    <g>
    </g>
    <g>
    </g>
    <g>
    </g>
    <g>
    </g>
    <g>
    </g>
    <g>
    </g>
    <g>
    </g>
    <g>
    </g>
    <g>
    </g>
    <g>
    </g>
    <g>
    </g>
   </g>
   <g>
   </g>
   <g>
   </g>
   <g>
   </g>
   <g>
   </g>
   <g>
   </g>
   <g>
   </g>
   <g>
   </g>
   <g>
   </g>
   <g>
   </g>
   <g>
   </g>
   <g>
   </g>
   <g>
   </g>
   <g>
   </g>
   <g>
   </g>
   <g>
   </g>
  </g>
  <g id="_2623544842160">
   <g>
    <g>
     <g>
      <path class="fil1" d="M20369 76c-3740,0 -6773,3033 -6773,6773 0,3741 3033,6774 6773,6774 3741,0 6773,-3033 6773,-6774 0,-3741 -3032,-6773 -6773,-6773zm-1693 10054l-1694 0 0 -5926 1694 0 0 5926zm-794 -6290c-439,0 -794,-355 -794,-794 0,-438 356,-794 794,-794 438,1 794,356 794,794 0,439 -356,794 -794,794zm6720 6290l-1693 0 0 -3664c0,-429 -123,-730 -650,-730 -875,0 -1043,730 -1043,730l0 3664 -1694 0 0 -5926 1694 0 0 566c242,-185 846,-566 1693,-566 549,0 1693,329 1693,2314l0 3612z"/>
     </g>
    </g>
    <g>
    </g>
    <g>
    </g>
    <g>
    </g>
    <g>
    </g>
    <g>
    </g>
    <g>
    </g>
    <g>
    </g>
    <g>
    </g>
    <g>
    </g>
    <g>
    </g>
    <g>
    </g>
    <g>
    </g>
    <g>
    </g>
    <g>
    </g>
    <g>
    </g>
   </g>
   <g>
   </g>
   <g>
   </g>
   <g>
   </g>
   <g>
   </g>
   <g>
   </g>
   <g>
   </g>
   <g>
   </g>
   <g>
   </g>
   <g>
   </g>
   <g>
   </g>
   <g>
   </g>
   <g>
   </g>
   <g>
   </g>
   <g>
   </g>
   <g>
   </g>
  </g>
 </g>
</svg>
