<?xml version="1.0" encoding="UTF-8"?>
<!DOCTYPE svg PUBLIC "-//W3C//DTD SVG 1.1//EN" "http://www.w3.org/Graphics/SVG/1.1/DTD/svg11.dtd">
<!-- Creator: CorelDRAW X8 -->
<svg xmlns="http://www.w3.org/2000/svg" xml:space="preserve" width="272mm" height="137mm" version="1.1" style="shape-rendering:geometricPrecision; text-rendering:geometricPrecision; image-rendering:optimizeQuality; fill-rule:evenodd; clip-rule:evenodd"
viewBox="0 0 27200 13700"
 xmlns:xlink="http://www.w3.org/1999/xlink">
 <defs>
  <style type="text/css">
   <![CDATA[
    .fil1 {fill:#2BAB51}
    .fil0 {fill:#3A3A3A}
   ]]>
  </style>
 </defs>
 <g id="Layer_x0020_1">
  <metadata id="CorelCorpID_0Corel-Layer"/>
  <g id="_2623541484160">
   <g>
    <g>
     <path class="fil0" d="M6830 49c-3740,0 -6773,3033 -6773,6774 0,3740 3033,6773 6773,6773 3741,0 6774,-3033 6774,-6773 0,-3742 -3033,-6774 -6774,-6774zm3370 5253l5 216c0,2205 -1677,4745 -4745,4745 -941,0 -1817,-276 -2556,-750 131,16 264,24 398,24 782,0 1501,-267 2071,-714 -730,-13 -1345,-496 -1558,-1158 103,20 206,29 314,29 153,0 300,-19 440,-58 -763,-154 -1338,-827 -1338,-1634l0 -22c225,126 482,200 755,210 -447,-299 -741,-810 -741,-1388 0,-306 82,-592 225,-838 822,1009 2051,1673 3437,1742 -28,-122 -43,-250 -43,-380 0,-920 747,-1667 1668,-1667 479,0 913,202 1218,526 379,-75 736,-214 1059,-404 -125,389 -389,716 -733,923 336,-40 658,-131 957,-263 -223,334 -507,628 -833,861z"/>
    </g>
    <g>
    </g>
    <g>
    </g>
    <g>
    </g>
    <g>
    </g>
    <g>
    </g>
    <g>
    </g>
    <g>
    </g>
    <g>
    </g>
    <g>
    </g>
    <g>
    </g>
    <g>
    </g>
    <g>
    </g>
    <g>
    </g>
    <g>
    </g>
    <g>
    </g>
   </g>
   <g>
   </g>
   <g>
   </g>
   <g>
   </g>
   <g>
   </g>
   <g>
   </g>
   <g>
   </g>
   <g>
   </g>
   <g>
   </g>
   <g>
   </g>
   <g>
   </g>
   <g>
   </g>
   <g>
   </g>
   <g>
   </g>
   <g>
   </g>
   <g>
   </g>
  </g>
  <g id="_2623541473408">
   <g>
    <g>
     <path class="fil1" d="M20377 52c-3741,0 -6773,3033 -6773,6773 0,3741 3032,6773 6773,6773 3741,0 6773,-3032 6773,-6773 0,-3741 -3032,-6773 -6773,-6773zm3370 5253l5 215c0,2205 -1677,4745 -4745,4745 -941,0 -1818,-276 -2556,-749 130,15 263,24 398,24 781,0 1500,-267 2071,-714 -730,-14 -1345,-496 -1558,-1158 102,19 206,28 314,28 153,0 300,-19 440,-57 -763,-154 -1338,-827 -1338,-1635l0 -21c225,125 482,200 755,209 -447,-299 -742,-810 -742,-1388 0,-305 83,-592 226,-838 822,1009 2051,1673 3437,1742 -29,-122 -43,-249 -43,-380 0,-920 747,-1667 1668,-1667 479,0 913,203 1217,527 380,-76 737,-214 1059,-405 -124,390 -388,716 -733,923 336,-40 659,-130 958,-263 -224,334 -507,628 -833,862z"/>
    </g>
    <g>
    </g>
    <g>
    </g>
    <g>
    </g>
    <g>
    </g>
    <g>
    </g>
    <g>
    </g>
    <g>
    </g>
    <g>
    </g>
    <g>
    </g>
    <g>
    </g>
    <g>
    </g>
    <g>
    </g>
    <g>
    </g>
    <g>
    </g>
    <g>
    </g>
   </g>
   <g>
   </g>
   <g>
   </g>
   <g>
   </g>
   <g>
   </g>
   <g>
   </g>
   <g>
   </g>
   <g>
   </g>
   <g>
   </g>
   <g>
   </g>
   <g>
   </g>
   <g>
   </g>
   <g>
   </g>
   <g>
   </g>
   <g>
   </g>
   <g>
   </g>
  </g>
 </g>
</svg>
