<?xml version="1.0" encoding="UTF-8"?>
<!DOCTYPE svg PUBLIC "-//W3C//DTD SVG 1.1//EN" "http://www.w3.org/Graphics/SVG/1.1/DTD/svg11.dtd">
<!-- Creator: CorelDRAW X8 -->
<svg xmlns="http://www.w3.org/2000/svg" xml:space="preserve" width="210mm" height="210mm" version="1.1" style="shape-rendering:geometricPrecision; text-rendering:geometricPrecision; image-rendering:optimizeQuality; fill-rule:evenodd; clip-rule:evenodd"
viewBox="0 0 21000 21000"
 xmlns:xlink="http://www.w3.org/1999/xlink">
 <defs>
  <style type="text/css">
   <![CDATA[
    .fil0 {fill:black}
    .fil1 {fill:white}
   ]]>
  </style>
 </defs>
 <g id="Layer_x0020_1">
  <metadata id="CorelCorpID_0Corel-Layer"/>
  <circle class="fil0" cx="10517" cy="10503" r="10415"/>
  <g id="_2214313946224">
   <g>
    <path class="fil1" d="M16384 13962c0,257 -73,496 -189,706l-3711 -4151 3671 -3212c143,227 229,493 229,780l0 5877zm-5877 -2692l5108 -4469c-210,-114 -446,-185 -700,-185l-8815 0c-255,0 -491,71 -700,185l5107 4469zm1424 -270l-1182 1035c-69,60 -155,90 -242,90 -86,0 -172,-30 -241,-90l-1183 -1035 -3758 4205c226,141 490,226 775,226l8815 0c285,0 549,-85 774,-226l-3758 -4205zm-7071 -3695c-143,227 -229,493 -229,780l0 5877c0,257 72,496 189,707l3710 -4153 -3670 -3211z"/>
   </g>
   <g>
   </g>
   <g>
   </g>
   <g>
   </g>
   <g>
   </g>
   <g>
   </g>
   <g>
   </g>
   <g>
   </g>
   <g>
   </g>
   <g>
   </g>
   <g>
   </g>
   <g>
   </g>
   <g>
   </g>
   <g>
   </g>
   <g>
   </g>
   <g>
   </g>
  </g>
 </g>
</svg>
