<?xml version="1.0" encoding="UTF-8"?>
<!DOCTYPE svg PUBLIC "-//W3C//DTD SVG 1.1//EN" "http://www.w3.org/Graphics/SVG/1.1/DTD/svg11.dtd">
<!-- Creator: CorelDRAW X8 -->
<svg xmlns="http://www.w3.org/2000/svg" xml:space="preserve" width="210mm" height="210mm" version="1.1" style="shape-rendering:geometricPrecision; text-rendering:geometricPrecision; image-rendering:optimizeQuality; fill-rule:evenodd; clip-rule:evenodd"
viewBox="0 0 21000 21000"
 xmlns:xlink="http://www.w3.org/1999/xlink">
 <defs>
  <style type="text/css">
   <![CDATA[
    .fil0 {fill:#00AC00}
    .fil1 {fill:white}
    .fil2 {fill:white}
   ]]>
  </style>
 </defs>
 <g id="Layer_x0020_1">
  <metadata id="CorelCorpID_0Corel-Layer"/>
  <circle class="fil0" cx="10517" cy="10503" r="10415"/>
  <path class="fil1" d="M17093 12141c-349,-42 -760,-147 -1212,-626 -698,-738 -542,-1771 53,-2368 563,-566 1524,-735 2361,-149 631,441 1098,1616 635,1928 -251,169 -375,-82 -424,-290 -101,-424 60,-830 -520,-1229 -479,-330 -1198,-238 -1584,74 -1018,824 -10,2564 1332,2045l-4 -460c-443,24 -1091,-49 -1125,-584 -34,-547 474,-813 926,-599 379,180 158,933 511,1404 475,635 1530,394 1655,-484 236,-1664 -1165,-2960 -2790,-2755 -2510,316 -2864,3662 -605,4570 251,101 1910,305 1985,-146 55,-325 -194,-343 -493,-336 -261,6 -563,21 -701,5z"/>
  <path class="fil2" d="M1865 12883l2007 0c286,0 519,-234 519,-519l0 -44c0,-285 -233,-519 -519,-519l-1445 0 0 -3287c0,-286 -233,-519 -519,-519l-43 0c-286,0 -519,233 -519,519l0 3849c0,286 233,520 519,520zm12438 -2413l0 -44c0,-285 -233,-519 -519,-519l-1445 0 0 -822 1445 0c286,0 519,-233 519,-519l0 -43c0,-286 -233,-519 -519,-519l-2007 0c-286,0 -519,233 -519,519l0 3850c0,285 233,519 519,519l2007 0c286,0 519,-234 519,-519l0 -44c0,-285 -233,-519 -519,-519l-1445 0 0 -822 1445 0c286,1 519,-233 519,-518l0 0zm-3860 2258l0 0c96,-97 150,-228 150,-364l0 -3850c0,-286 -233,-519 -519,-519l-43 0c-286,0 -519,233 -519,519l0 2260 -1876 -2517c-90,-156 -259,-262 -451,-262l-43 0c-286,0 -520,233 -520,519l0 3850c0,285 234,519 520,519l43 0c285,0 519,-234 519,-519l0 -2303 1890 2581c11,19 24,36 38,52l0 1c52,70 123,119 202,149 61,25 127,39 197,39l43 0c0,0 0,0 0,0 85,0 168,-21 243,-61 52,-25 95,-56 126,-94l0 0zm-5109 309l43 0c285,0 519,-233 519,-519l0 -3850c0,-285 -234,-519 -519,-519l-43 0c-286,0 -520,234 -520,519l0 3850c0,286 234,519 520,519z"/>
 </g>
</svg>
