<?xml version="1.0" encoding="UTF-8"?>
<!DOCTYPE svg PUBLIC "-//W3C//DTD SVG 1.1//EN" "http://www.w3.org/Graphics/SVG/1.1/DTD/svg11.dtd">
<!-- Creator: CorelDRAW X8 -->
<svg xmlns="http://www.w3.org/2000/svg" xml:space="preserve" width="210mm" height="210mm" version="1.1" style="shape-rendering:geometricPrecision; text-rendering:geometricPrecision; image-rendering:optimizeQuality; fill-rule:evenodd; clip-rule:evenodd"
viewBox="0 0 21000 21000"
 xmlns:xlink="http://www.w3.org/1999/xlink">
 <defs>
  <style type="text/css">
   <![CDATA[
    .fil0 {fill:black}
    .fil1 {fill:white}
   ]]>
  </style>
 </defs>
 <g id="Layer_x0020_1">
  <metadata id="CorelCorpID_0Corel-Layer"/>
  <circle class="fil0" cx="10517" cy="10503" r="10415"/>
  <g id="_2215655210592">
   <g>
    <path class="fil1" d="M12889 3992l-5080 0c-779,0 -1411,633 -1411,1411l0 10724c0,778 632,1411 1411,1411l5080 0c778,0 1411,-633 1411,-1411l0 -10724c0,-778 -633,-1411 -1411,-1411zm-3951 1129l2822 0c156,0 282,126 282,282 0,156 -126,282 -282,282l-2822 0c-156,0 -283,-126 -283,-282 0,-156 127,-282 283,-282zm1411 11571c-312,0 -565,-253 -565,-565 0,-312 253,-564 565,-564 312,0 564,252 564,564 0,312 -252,565 -564,565zm3386 -1976l-6773 0 0 -7902 6773 0 0 7902z"/>
   </g>
   <g>
   </g>
   <g>
   </g>
   <g>
   </g>
   <g>
   </g>
   <g>
   </g>
   <g>
   </g>
   <g>
   </g>
   <g>
   </g>
   <g>
   </g>
   <g>
   </g>
   <g>
   </g>
   <g>
   </g>
   <g>
   </g>
   <g>
   </g>
   <g>
   </g>
  </g>
 </g>
</svg>
